<svg xmlns="http://www.w3.org/2000/svg" viewBox="0 0 24 24" width="24" height="24" color="currentColor" fill="none">
    <path fill-rule="evenodd" clip-rule="evenodd" d="M11.998 22.25C14.2157 22.25 15.9545 22.2515 17.3095 22.0693C18.6862 21.8842 19.7785 21.4969 20.6367 20.6387C21.4949 19.7805 21.8822 18.6882 22.0673 17.3115C22.2495 15.9565 22.248 14.2177 22.248 12C22.248 9.78227 22.2495 8.0435 22.0673 6.68848C21.8822 5.31182 21.4949 4.21953 20.6367 3.36133C19.7785 2.50313 18.6862 2.11575 17.3095 1.93066C15.9545 1.74854 14.2157 1.75 11.998 1.75C9.78032 1.75 8.04155 1.74854 6.68653 1.93066C5.30987 2.11575 4.21758 2.50313 3.35938 3.36133C2.50118 4.21953 2.1138 5.31182 1.92871 6.68848C1.74659 8.0435 1.74805 9.78227 1.74805 12C1.74805 14.2177 1.74659 15.9565 1.92871 17.3115C2.1138 18.6882 2.50118 19.7805 3.35938 20.6387C4.21758 21.4969 5.30987 21.8842 6.68653 22.0693C8.04155 22.2515 9.78032 22.25 11.998 22.25ZM11.998 20.75C9.73768 20.75 8.11765 20.7486 6.88575 20.583C5.67552 20.4203 4.95295 20.1111 4.41993 19.5781C3.8869 19.0451 3.57777 18.3225 3.41504 17.1123C3.24942 15.8804 3.24805 14.2604 3.24805 12C3.24805 9.73963 3.24942 8.1196 3.41504 6.8877C3.57777 5.67747 3.8869 4.9549 4.41992 4.42188C4.95295 3.88885 5.67552 3.57972 6.88575 3.41699C8.11765 3.25137 9.73768 3.25 11.998 3.25C14.2584 3.25 15.8784 3.25137 17.1103 3.41699C18.3205 3.57972 19.0431 3.88885 19.5761 4.42187C20.1091 4.9549 20.4183 5.67747 20.581 6.8877C20.7466 8.1196 20.748 9.73963 20.748 12C20.748 14.2604 20.7466 15.8804 20.581 17.1123C20.4183 18.3225 20.1091 19.0451 19.5761 19.5781C19.0431 20.1111 18.3205 20.4203 17.1103 20.583C15.8784 20.7486 14.2584 20.75 11.998 20.75ZM11.998 16.75C12.4122 16.75 12.748 16.4142 12.748 16V12.75H15.998C16.4122 12.75 16.748 12.4142 16.748 12C16.748 11.5858 16.4122 11.25 15.998 11.25H12.748V8C12.748 7.58579 12.4122 7.25 11.998 7.25C11.5838 7.25 11.248 7.58579 11.248 8V11.25H7.99805C7.58384 11.25 7.24805 11.5858 7.24805 12C7.24805 12.4142 7.58384 12.75 7.99805 12.75H11.248V16C11.248 16.4142 11.5838 16.75 11.998 16.75Z" fill="currentColor" />
</svg>