<svg xmlns="http://www.w3.org/2000/svg" viewBox="0 0 24 24" width="24" height="24" color="currentColor" fill="none">
    <path fill-rule="evenodd" clip-rule="evenodd" d="M12.0001 1.75C12.7873 1.75 13.4814 2.02001 14.212 2.46001C14.9253 2.89001 15.7402 3.52499 16.7579 4.31599L18.7579 5.87199C20.0268 6.85899 20.8674 7.49 21.3175 8.41C21.7675 9.33 21.7501 10.382 21.7501 11.989V14.5C21.7501 16.129 21.7517 17.426 21.6153 18.44C21.476 19.477 21.1801 20.33 20.505 21.005C19.8298 21.68 18.9767 21.976 17.9405 22.115C16.9258 22.252 15.6288 22.25 14.0001 22.25H10.0001C8.37142 22.25 7.07433 22.252 6.05966 22.115C5.02345 21.976 4.17032 21.68 3.49521 21.005C2.82011 20.33 2.52418 19.477 2.38486 18.44C2.28254 17.679 2.25799 16.76 2.25204 15.66L2.25009 14.5V11.989C2.25009 10.382 2.2327 9.33 2.68271 8.41C3.13281 7.49 3.97344 6.85899 5.24228 5.87199L7.24228 4.31599C8.26 3.52499 9.07485 2.89001 9.78818 2.46001C10.5188 2.02001 11.2129 1.75 12.0001 1.75ZM12.0001 3.25C11.5866 3.25 11.1641 3.382 10.5626 3.744C9.94354 4.117 9.20975 4.68701 8.16318 5.50101L6.16318 7.056C4.77819 8.133 4.29113 8.534 4.02939 9.069C3.76768 9.604 3.75009 10.235 3.75009 11.989V14.5C3.75009 16.171 3.75137 17.349 3.87118 18.24C3.98814 19.11 4.20579 19.594 4.55575 19.944C4.90573 20.294 5.38998 20.512 6.25986 20.629C7.15131 20.749 8.32922 20.75 10.0001 20.75H14.0001C15.671 20.75 16.8489 20.749 17.7403 20.629C18.6102 20.512 19.0944 20.294 19.4444 19.944C19.7944 19.594 20.012 19.11 20.129 18.24C20.2488 17.349 20.2501 16.171 20.2501 14.5V11.989C20.2501 10.235 20.2325 9.604 19.9708 9.069C19.709 8.534 19.222 8.133 17.837 7.056L15.837 5.50101C14.7904 4.68701 14.0566 4.117 13.4376 3.744C12.836 3.382 12.4136 3.25 12.0001 3.25ZM16.0001 16.25C16.4143 16.25 16.7501 16.586 16.7501 17C16.7501 17.414 16.4143 17.75 16.0001 17.75H8.00009C7.58588 17.75 7.25009 17.414 7.25009 17C7.25009 16.586 7.58588 16.25 8.00009 16.25H16.0001Z" fill="currentColor" />
</svg>