<svg xmlns="http://www.w3.org/2000/svg" viewBox="0 0 24 24" width="24" height="24" color="currentColor" fill="none">
    <path fill-rule="evenodd" clip-rule="evenodd" d="M3.97195 19.3515C4.12195 19.5015 4.31195 19.5715 4.50195 19.5715C4.69195 19.5715 4.88195 19.5015 5.03195 19.3515C5.32195 19.0615 5.32195 18.5815 5.03195 18.2915C3.52195 16.7815 2.75195 14.9415 2.75195 12.8215C2.75195 10.7015 3.52195 8.86153 5.03195 7.35153C5.32195 7.06153 5.32195 6.58147 5.03195 6.29147C4.74195 6.00147 4.26195 6.00147 3.97195 6.29147C2.19195 8.07147 1.25195 10.3315 1.25195 12.8215C1.25195 15.3115 2.19195 17.5715 3.97195 19.3515ZM7.50195 17.5715C7.31195 17.5715 7.12195 17.5015 6.97195 17.3515C5.88195 16.2615 5.25195 14.6115 5.25195 12.8215C5.25195 11.0315 5.88195 9.38147 6.97195 8.29147C7.26195 8.00147 7.74196 8.00147 8.03196 8.29147C8.32196 8.58147 8.32196 9.06153 8.03196 9.35153C7.22196 10.1615 6.75195 11.4315 6.75195 12.8215C6.75195 14.2115 7.22196 15.4815 8.03196 16.2915C8.32196 16.5815 8.32196 17.0615 8.03196 17.3515C7.88196 17.5015 7.69195 17.5715 7.50195 17.5715ZM12.002 15.572C10.482 15.572 9.25195 14.342 9.25195 12.822C9.25195 11.302 10.482 10.072 12.002 10.072C13.522 10.072 14.752 11.302 14.752 12.822C14.752 14.342 13.522 15.572 12.002 15.572ZM12.002 11.572C11.312 11.572 10.752 12.132 10.752 12.822C10.752 13.512 11.312 14.072 12.002 14.072C12.692 14.072 13.252 13.512 13.252 12.822C13.252 12.132 12.692 11.572 12.002 11.572ZM16.4995 17.5715C16.3095 17.5715 16.1195 17.5015 15.9695 17.3515C15.6795 17.0615 15.6795 16.5815 15.9695 16.2915C16.7795 15.4815 17.2495 14.2115 17.2495 12.8215C17.2495 11.4315 16.7795 10.1615 15.9695 9.35153C15.6795 9.06153 15.6795 8.58147 15.9695 8.29147C16.2595 8.00147 16.7395 8.00147 17.0295 8.29147C18.1195 9.38147 18.7495 11.0315 18.7495 12.8215C18.7495 14.6115 18.1195 16.2615 17.0295 17.3515C16.8795 17.5015 16.6895 17.5715 16.4995 17.5715ZM18.9695 19.3515C19.1195 19.5015 19.3095 19.5715 19.4995 19.5715C19.6895 19.5715 19.8795 19.5015 20.0295 19.3515C21.8095 17.5715 22.7495 15.3115 22.7495 12.8215C22.7495 10.3315 21.8095 8.07147 20.0295 6.29147C19.7395 6.00147 19.2595 6.00147 18.9695 6.29147C18.6795 6.58147 18.6795 7.06153 18.9695 7.35153C20.4795 8.86153 21.2495 10.7015 21.2495 12.8215C21.2495 14.9415 20.4795 16.7815 18.9695 18.2915C18.6795 18.5815 18.6795 19.0615 18.9695 19.3515Z" fill="currentColor" />
</svg>